<svg xmlns="http://www.w3.org/2000/svg" xmlns:xlink="http://www.w3.org/1999/xlink" xml:space="preserve" style="shape-rendering:geometricPrecision;text-rendering:geometricPrecision;image-rendering:optimizeQuality;" viewBox="0 0 6827 8533.75" x="0px" y="0px" fill-rule="evenodd" clip-rule="evenodd"><defs><style type="text/css">
   
    .fil1 {fill:none}
    .fil0 {fill:black}
   
  </style></defs><g><g><path class="fil0" d="M3413 853c-149,0 -313,18 -453,70 -104,38 -234,114 -234,240 0,126 130,202 234,240 140,51 304,70 453,70 149,0 313,-18 453,-70 104,-38 234,-114 234,-240 0,-126 -130,-202 -234,-240 -140,-51 -304,-70 -453,-70zm491 326c-23,20 -71,43 -101,54 -120,44 -263,59 -390,59 -127,0 -270,-14 -390,-59 -29,-11 -77,-34 -101,-54l-18 -16 18 -16c23,-20 71,-43 101,-54 120,-44 263,-59 390,-59 127,0 270,14 390,59 29,11 77,34 101,54l18 16 -18 16z"/><path class="fil0" d="M2830 2426c17,169 -3,340 -55,502 -23,72 -57,155 -97,219l-1 1 -1 1 -1239 1866c-126,218 -281,570 -80,793 76,85 209,147 322,165l1733 0 1734 0c109,-17 236,-75 312,-154 215,-222 57,-581 -71,-802l-1 -2 -1239 -1867 -1 -1c-40,-64 -73,-146 -96,-217 -53,-162 -72,-334 -56,-504l0 -2 0 -1103c-25,12 -50,23 -75,32 -30,11 -61,21 -92,29l0 1034 0 4c-24,265 36,588 177,815l2 3 1238 1865 1 2c41,72 79,149 108,227 41,113 78,272 -16,369 -47,49 -130,87 -197,101l-9 2 -1720 0 -1719 0 -9 -2c-71,-16 -158,-56 -205,-111 -128,-148 18,-443 100,-587l1 -2 1235 -1861 2 -3 3 -4c142,-228 201,-550 177,-815l0 -4 0 -1034c-31,-8 -62,-18 -92,-29 -25,-9 -50,-20 -75,-32l0 1102 0 2z"/><path class="fil0" d="M2356 4087l-704 1061c-57,101 -203,382 -109,490 36,41 108,72 160,84l1710 0 1711 0c50,-11 119,-41 155,-78 66,-68 25,-205 -3,-282 -27,-74 -63,-146 -102,-215l-666 -1003c-423,188 -926,284 -1365,103 -248,-102 -517,-166 -786,-160zm434 405c49,0 89,40 89,89 0,49 -40,89 -89,89 -49,0 -89,-40 -89,-89 0,-49 40,-89 89,-89zm-395 457c25,0 45,20 45,45 0,25 -20,45 -45,45 -25,0 -45,-20 -45,-45 0,-25 20,-45 45,-45zm79 -374c49,0 89,40 89,89 0,49 -40,89 -89,89 -49,0 -89,-40 -89,-89 0,-49 40,-89 89,-89zm140 229c36,0 65,29 65,65 0,36 -29,65 -65,65 -36,0 -65,-29 -65,-65 0,-36 29,-65 65,-65zm1332 124c0,-36 29,-65 65,-65 36,0 65,29 65,65 0,36 -29,65 -65,65 -36,0 -65,-29 -65,-65zm231 75c52,0 95,42 95,95 0,52 -42,95 -95,95 -52,0 -95,-42 -95,-95 0,-52 42,-95 95,-95zm-121 -367c0,-36 29,-65 65,-65 36,0 65,29 65,65 0,36 -29,65 -65,65 -36,0 -65,-29 -65,-65zm320 253c52,0 95,42 95,95 0,52 -42,95 -95,95 -52,0 -95,-42 -95,-95 0,-52 42,-95 95,-95zm-1608 211c25,0 45,20 45,45 0,25 -20,45 -45,45 -25,0 -44,-20 -44,-45 0,-25 20,-45 44,-45zm137 -189c25,0 45,20 45,44 0,25 -20,45 -45,45 -25,0 -45,-20 -45,-45 0,-25 20,-44 45,-44zm165 -120c0,-49 40,-89 89,-89 49,0 89,40 89,89 0,49 -40,89 -89,89 -49,0 -89,-40 -89,-89zm7 203c25,0 45,20 45,45 0,25 -20,45 -45,45 -25,0 -45,-20 -45,-45 0,-25 20,-45 45,-45zm508 0c25,0 45,20 45,45 0,25 -20,45 -45,45 -25,0 -45,-20 -45,-45 0,-25 20,-45 45,-45zm-151 -398c25,0 44,20 44,45 0,25 -20,45 -44,45 -25,0 -45,-20 -45,-45 0,-25 20,-45 45,-45zm295 158c25,0 45,20 45,45 0,25 -20,45 -45,45 -25,0 -45,-20 -45,-45 0,-25 20,-45 45,-45zm-433 240c36,0 65,29 65,65 0,36 -29,65 -65,65 -36,0 -65,-29 -65,-65 0,-36 29,-65 65,-65zm-800 127c49,0 89,40 89,89 0,49 -40,89 -89,89 -49,0 -89,-40 -89,-89 0,-49 40,-89 89,-89zm-56 207c49,0 89,40 89,89 0,49 -40,89 -89,89 -49,0 -89,-40 -89,-89 0,-49 40,-89 89,-89zm595 -159c49,0 89,40 89,89 0,49 -40,89 -89,89 -49,0 -89,-40 -89,-89 0,-49 40,-89 89,-89zm-197 219c49,0 89,40 89,89 0,49 -40,89 -89,89 -49,0 -89,-40 -89,-89 0,-49 40,-89 89,-89zm883 -5c52,0 95,42 95,95 0,52 -42,95 -95,95 -52,0 -95,-42 -95,-95 0,-52 42,-95 95,-95zm-260 -159c25,0 45,20 45,44 0,25 -20,45 -45,45 -25,0 -45,-20 -45,-45 0,-25 20,-44 45,-44zm356 -87c36,0 65,29 65,65 0,36 -29,65 -65,65 -36,0 -65,-29 -65,-65 0,-36 29,-65 65,-65zm-1623 87c25,0 45,20 45,44 0,25 -20,45 -45,45 -25,0 -45,-20 -45,-45 0,-25 20,-44 45,-44zm1820 -110c25,0 44,20 44,45 0,25 -20,45 -44,45 -25,0 -45,-20 -45,-45 0,-25 20,-45 45,-45zm185 111c52,0 95,42 95,95 0,52 -42,95 -95,95 -52,0 -95,-42 -95,-95 0,-52 42,-95 95,-95zm409 -69c52,0 95,42 95,95 0,52 -42,95 -95,95 -52,0 -95,-42 -95,-95 0,-52 42,-95 95,-95z"/></g></g><rect class="fil1" width="6827" height="6827"/><text x="0" y="6842" fill="#000000" font-size="5px" font-weight="bold" font-family="'Helvetica Neue', Helvetica, Arial-Unicode, Arial, Sans-serif">Created by IYIKON</text><text x="0" y="6847" fill="#000000" font-size="5px" font-weight="bold" font-family="'Helvetica Neue', Helvetica, Arial-Unicode, Arial, Sans-serif">from the Noun Project</text></svg>