<svg xmlns="http://www.w3.org/2000/svg" xmlns:xlink="http://www.w3.org/1999/xlink" xml:space="preserve" version="1.1" style="shape-rendering:geometricPrecision;text-rendering:geometricPrecision;image-rendering:optimizeQuality;" viewBox="0 0 186 232.5" x="0px" y="0px" fill-rule="evenodd" clip-rule="evenodd"><defs><style type="text/css">
   
    .fil0 {fill:black}
   
  </style></defs><g><path class="fil0" d="M186 160c0,7 -3,13 -8,18l0 0 0 0c-5,5 -11,8 -18,8 -8,0 -14,-3 -19,-8l0 0 0 0c-5,-5 -8,-11 -8,-18 0,-8 3,-14 8,-19l0 0 0 0c5,-5 11,-8 19,-8 7,0 13,3 18,8l0 0 0 0c5,5 8,11 8,19z"/><path class="fil0" d="M119 160c0,7 -3,13 -7,18l-1 0 0 0c-4,5 -11,8 -18,8 -7,0 -14,-3 -19,-8l0 0 0 0c-4,-5 -7,-11 -7,-18 0,-8 3,-14 7,-19l0 0 0 0c5,-5 12,-8 19,-8 7,0 14,3 18,8l1 0 0 0c4,5 7,11 7,19z"/><path class="fil0" d="M53 160c0,7 -3,13 -8,18l0 0 0 0c-5,5 -12,8 -19,8 -7,0 -14,-3 -18,-8l0 0 0 0c-5,-5 -8,-11 -8,-18 0,-8 3,-14 8,-19l0 0 0 0c5,-5 11,-8 18,-8 8,0 14,3 19,8l0 0 0 0c5,5 8,11 8,19z"/><path class="fil0" d="M186 93c0,7 -3,14 -8,18l0 1 0 0c-5,4 -11,7 -18,7 -8,0 -14,-3 -19,-7l0 -1 0 0c-5,-4 -8,-11 -8,-18 0,-7 3,-14 8,-19l0 0 0 0c5,-4 11,-7 19,-7 7,0 13,3 18,7l0 0 0 0c5,5 8,12 8,19z"/><path class="fil0" d="M119 93c0,7 -3,14 -7,18l-1 1 0 0c-4,4 -11,7 -18,7 -7,0 -14,-3 -19,-7l0 -1 0 0c-4,-4 -7,-11 -7,-18 0,-7 3,-14 7,-19l0 0 0 0c5,-4 12,-7 19,-7 7,0 14,3 18,7l1 0 0 0c4,5 7,12 7,19z"/><path class="fil0" d="M53 93c0,7 -3,14 -8,18l0 1 0 0c-5,4 -12,7 -19,7 -7,0 -14,-3 -18,-7l0 -1 0 0c-5,-4 -8,-11 -8,-18 0,-7 3,-14 8,-19l0 0 0 0c5,-4 11,-7 18,-7 8,0 14,3 19,7l0 0 0 0c5,5 8,12 8,19z"/><path class="fil0" d="M186 26c0,7 -3,14 -8,19l0 0 0 0c-5,5 -11,8 -18,8 -8,0 -14,-3 -19,-8l0 0 0 0c-5,-5 -8,-12 -8,-19 0,-7 3,-14 8,-18l0 0 0 0c5,-5 11,-8 19,-8 7,0 13,3 18,8l0 0 0 0c5,5 8,11 8,18z"/><path class="fil0" d="M119 26c0,7 -3,14 -7,19l-1 0 0 0c-4,5 -11,8 -18,8 -7,0 -14,-3 -19,-8l0 0 0 0c-4,-5 -7,-12 -7,-19 0,-7 3,-14 7,-18l0 0 0 0c5,-5 12,-8 19,-8 7,0 14,3 18,8l1 0 0 0c4,5 7,11 7,18z"/><path class="fil0" d="M53 26c0,7 -3,14 -8,19l0 0 0 0c-5,5 -12,8 -19,8 -7,0 -14,-3 -18,-8l0 0 0 0c-5,-5 -8,-12 -8,-19 0,-7 3,-14 8,-18l0 0 0 0c5,-5 11,-8 18,-8 8,0 14,3 19,8l0 0 0 0c5,5 8,11 8,18z"/></g><text x="0" y="201" fill="#000000" font-size="5px" font-weight="bold" font-family="'Helvetica Neue', Helvetica, Arial-Unicode, Arial, Sans-serif">Created by rinnduu</text><text x="0" y="206" fill="#000000" font-size="5px" font-weight="bold" font-family="'Helvetica Neue', Helvetica, Arial-Unicode, Arial, Sans-serif">from the Noun Project</text></svg>